<svg xmlns="http://www.w3.org/2000/svg" xmlns:xlink="http://www.w3.org/1999/xlink" fill="none" version="1.1" width="5619.001953125" height="5618.998046875" viewBox="0 0 5619.001953125 5618.998046875"><g><g style="mix-blend-mode:hard-light"><path d="M0.776855,2775.93C-0.739746,2795.14,0.0688477,2842.05,2.29297,2860.44C21.5005,3019.96,117.234,3148.34,263.21,3210.21C275.846,3215.57,1149.07,3538.74,1150.89,3538.74C1152.51,3538.74,1505.62,3207.38,1505.62,3205.86C1505.62,3205.25,1266.14,3116.2,973.376,3007.93C680.616,2899.56,440.322,2810.61,439.412,2810.2C439.41,2810.2,439.408,2810.2,439.407,2810.2C439.068,2809.27,650.026,2730.8,1111.16,2560.21C1481.56,2423.24,1792.12,2308.2,1801.31,2304.76C1946.78,2248.86,2072.54,2157.38,2169.89,2036.58C2226.4,1966.42,2272.1,1886.56,2304.95,1800.54C2308.59,1791.03,2423.43,1481.1,2560,1111.62C2696.68,742.147,2808.79,439.49,2809.2,439.085C2809.68,438.905,2881.12,630.784,2968.01,865.676C3055.05,1100.71,3126.72,1293.08,3127.33,1293.08C3128.04,1293.08,3205.88,1220.39,3300.4,1131.54L3472.25,969.898L3470.84,966.259C3453.35,917.029,3211.54,266.326,3206.89,255.813C3181.51,198.496,3144.21,147.042,3099.63,107.82C3031.9,48.2795,2950.82,12.7976,2857.72,2.08228C2844.68,0.666992,2795.24,-0.545898,2782.91,0.262939C2674.24,7.84448,2579.31,49.1895,2505.52,120.962C2465.18,160.285,2430.91,210.728,2408.97,263.091C2406.14,269.864,2289.48,584.551,2149.68,962.316C2009.87,1340.08,1893.91,1653.05,1891.99,1657.7C1871.27,1707.54,1839.73,1755.15,1800.91,1794.78C1759.56,1837.13,1705.18,1873.42,1651.7,1894.35C1645.33,1896.87,1333.67,2012.21,959.224,2150.81C584.781,2289.3,272.712,2405.04,265.737,2407.87C186.886,2440.22,118.245,2496.12,72.147,2565.77C30.6997,2628.25,6.94336,2698.2,0.776855,2775.93ZM2250.26,4300.95C2117.73,4425.28,2078.41,4462.69,2078.71,4464.2C2079.01,4466.33,2399.37,5332.14,2405.54,5347.71C2411.3,5362.06,2420.4,5381.47,2427.68,5395.02C2495.61,5519.86,2614.39,5599.32,2758.65,5616.71C2777.05,5618.93,2823.95,5619.74,2843.16,5618.22C2975.49,5607.71,3089.82,5543.92,3164.02,5439.19C3181.11,5415.03,3199.91,5380.87,3211.23,5353.27C3214.06,5346.29,3330.42,5032.42,3469.83,4655.76C3609.13,4279.11,3725.49,3965.43,3728.32,3958.76C3770.88,3858.28,3852.15,3775.49,3951.53,3731.42C3959.61,3727.88,4275.12,3610.72,4652.59,3471.01C5030.17,3331.41,5345.58,3214.35,5353.66,3211.02C5361.75,3207.68,5376.51,3200.81,5386.52,3195.65C5479.72,3147.84,5550.08,3070.81,5587.99,2974.87C5603.26,2936.26,5611.95,2901.18,5617.11,2856.9C5619.63,2835.57,5619.63,2783.21,5617.11,2761.88C5608.62,2689.1,5586.48,2626.42,5548.97,2568.91C5501.36,2495.62,5431.2,2438.7,5347.5,2405.45C5333.24,2399.79,4575.46,2119.47,4574.55,2119.47C4574.05,2119.57,4494.18,2194.27,4396.83,2285.66C4299.58,2377.04,4219.82,2452.25,4219.72,2452.65C4219.53,2453.17,4435.76,2533.63,4700.11,2631.38C4964.43,2729.18,5180.27,2809.41,5180.09,2809.9C5179.68,2810.3,4872.67,2924.03,4497.93,3062.62C4123.18,3201.21,3808.99,3317.76,3799.79,3321.51C3694.55,3364.16,3599.83,3426.43,3518.45,3506.4C3472.86,3551.28,3437.98,3593.33,3402.9,3645.9C3369.04,3696.74,3342.55,3747.29,3319.2,3805.62C3314.65,3817.04,3198.19,4131.22,3060.31,4503.93C2835.22,5112.44,2810.3,5179.33,2808.65,5178.76C2808.62,5178.75,2808.6,5178.73,2808.59,5178.69C2807.58,5176.27,2427.57,4149.62,2424.84,4141.93C2424.24,4140.42,2423.43,4139.21,2423.03,4139.41C2422.52,4139.61,2344.78,4212.29,2250.26,4300.95Z" fill="#8ABEFF" fill-opacity="1" style="mix-blend-mode:hard-light"/></g><g style="mix-blend-mode:hard-light"><path d="M529.64774,4899.8C527.12088,4909.8,526.9187317,4911.93,527.0198059,4932.25C527.0198059,4953.27,527.12088,4954.38,530.15359,4965.6C534.70242,4982.79,542.992,5000.78,551.989,5013.42L555.5271,5018.37L793.9010000000001,4759.28C1009.124,4525.469999999999,1032.375,4499.889999999999,1032.173,4497.16C1032.0720000000001,4495.45,1031.971,4487.860000000001,1031.87,4480.38C1031.162,4407.2,1096.972,4332.59,1173.297,4320.0599999999995C1186.944,4317.83,1208.6779999999999,4318.54,1220.1019999999999,4321.57C1254.7759999999998,4330.67,1278.431,4354.83,1287.328,4390.21C1288.642,4395.37,1289.046,4401.33,1289.046,4415.18C1289.046,4431.5599999999995,1288.844,4434.49,1286.317,4444.1900000000005C1277.016,4481.6,1255.6860000000001,4514.25,1224.347,4539.42C1190.684,4566.41,1147.923,4580.360000000001,1113.855,4575.41L1107.4859999999999,4574.5L850.0070000000001,4807.71C708.479,4935.99,590.8084,5042.53,588.6853,5044.56L584.743,5048.19L593.3357,5053.86C608.095,5063.66,626.3924,5071.44,643.679,5075.29C655.5070000000001,5077.92,681.588,5078.42,694.326,5076.4C707.8720000000001,5074.17,726.5740000000001,5067.91,738.1990000000001,5061.74C743.153,5059.11,974.3489999999999,4911.42,1251.743,4733.51L1756.29,4410.13L3418.54,2760.88C4332.8099999999995,1853.82,5083.61,1109.103,5086.95,1106.0700000000002L5092.91,1100.51L5091.8,1089.391C5085.13,1026.5140000000001,5066.53,955.7529999999999,5040.54,895.1C5006.88,816.251,4961.49,750.948,4903.77,697.979C4823.6,624.4878,4710.18,570.8101,4587.76,548.67188C4575.42,546.34668,4544.09,542,4540.45,542C4539.74,542,4443.4,637.0227,4326.4400000000005,753.173C4209.37,869.22,4113.54,964.142,4113.34,964.0409999999999C4113.23,963.94,4113.84,960.604,4114.85,956.6610000000001C4115.76,952.6179999999999,4116.27,949.181,4115.96,948.8779999999999C4114.95,947.867,4082.2,941.5989999999999,4064.1,938.87C4024.27,933.0070000000001,3988.79,930.682,3951.89,931.49C3885.17,933.108,3832.5,944.531,3786.61,967.4780000000001C3762.04,979.81,3744.35,992.345,3721.2,1013.877C3681.27,1051.1779999999999,3543.48,1187.4450000000002,3316.43,1414.185L3176.32,1554.0900000000001L3172.48,1552.98C3170.46,1552.47,3163.28,1551.46,3156.61,1550.75C3142.25,1549.3400000000001,3124.36,1550.65,3106.57,1554.3899999999999C3006.89,1575.42,2901.05,1668.32,2871.93,1760.11C2866.78,1776.18,2865.26,1786.29,2865.26,1803.07C2865.26,1820.86,2867.28,1830.47,2873.85,1843C2885.28,1864.94,2904.28,1877.88,2932.69,1882.93C2947.04,1885.46,2974.64,1884.65,2991.53,1881.01C3039.04,1871,3087.87,1845.73,3133.05,1807.72C3145.99,1796.9,3168.13,1774.46,3177.43,1762.64C3182.79,1755.96,3258.71,1679.34,3401.45,1536.704C3702.1,1236.1689999999999,3821.28,1118.705,3836.65,1107.8890000000001C3857.78,1092.9279999999999,3887.8,1083.223,3925.31,1079.281C3940.37,1077.7649999999999,3991.02,1077.259,3995.46,1078.5729999999999L3995.47,1078.577C3996.66,1079.7939999999999,3784.77,1290.354,2600.1,2465.7L1202.613,3852.12L874.976,4354.33C694.831,4630.5,545.5193,4860.27,543.093,4864.82C537.1287,4876.14,532.88309,4887.16,529.64774,4899.8Z" fill="#8ABEFF" fill-opacity="1" style="mix-blend-mode:hard-light"/></g></g></svg>