<svg xmlns="http://www.w3.org/2000/svg" xmlns:xlink="http://www.w3.org/1999/xlink" fill="none" version="1.1" width="19593" height="5400" viewBox="0 0 19593 5400"><g><g><path d="M2250.15,1234.394C2280.45,1128.355,2306.97,1014.7419,2306.97,988.2322C2306.97,954.1484,2371.37,939,2534.25,939C2659.26,939,2761.54,954.1484,2761.54,969.2969C2761.54,988.2322,2735.03,1086.6970000000001,2704.72,1188.948C2660.91,1336.483,2642.36,1394.212,2662.75,1416.8020000000001C2675.86,1431.3229999999999,2705.05,1431.3229999999999,2753.97,1431.3229999999999C2852.46,1431.3229999999999,2871.4,1408.6,2932.01,1223.032L3003.98,1014.7419L3379.01,1014.7419L3356.28,1135.929C3341.13,1204.097,3322.18,1298.774,3307.03,1344.219C3288.09,1416.174,3299.46,1431.3229999999999,3363.85,1431.3229999999999C3432.04,1431.3229999999999,3443.4,1454.045,3443.4,1601.742L3443.4,1772.161L2500.16,1772.161L2439.55,1885.774L2378.94,1999.39L3519.17,1999.39L3519.17,2378.1L3212.33,2378.1L3386.58,2605.3199999999997L3560.84,2832.55L3409.31,2832.55C3325.97,2832.55,3250.21,2843.91,3242.63,2859.06C3231.27,2877.99,3212.33,3002.97,3197.18,3146.88L3170.66,3400.61L3519.17,3400.61L3519.17,3798.26C3519.17,4063.36,3500.23,4241.35,3466.13,4328.45Q3409.31,4461,3159.3,4461L2905.49,4461L2988.83,4328.45C3038.08,4248.92,3079.74,4105.01,3091.11,3968.68L3113.84,3741.45L1579.65,3741.45L1602.38,3521.8C1634.21,3255.83,1642.84,3156.34,1695.45,3119.29C1730.48,3094.62,1785.02,3097.65,1878.91,3097.65L2091.04,3097.65L2064.53,3249.13L2041.8,3400.61L2382.73,3400.61C2628.96,3400.61,2723.66,3389.25,2723.66,3351.38C2723.66,3328.66,2735.03,3241.55,2746.39,3162.03L2772.91,3021.9L1587.22,3021.9L1587.22,2923.44C1587.22,2836.34,1575.86,2828.76,1466,2840.12L1341,2851.48L1318.27,3571.03C1303.11,3964.89,1280.39,4328.45,1265.23,4373.9C1238.72,4453.43,1212.2,4461,996.276,4461L757.625,4461L837.175,4279.219999999999C897.785,4146.67,924.302,3998.97,935.667,3692.22L954.607,3287L579.583,3287L537.914,3771.75C515.185,4036.85,477.304,4298.15,454.575,4354.96C416.693,4453.43,397.753,4461,208.347,4461L0,4461L64.3979,4298.15C117.432,4161.82,128.796,3934.59,140.161,2575.0299999999997L151.525,1014.7419L1322.06,1014.7419L1322.06,1904.71C1322.06,2393.25,1337.21,2794.6800000000003,1352.36,2794.6800000000003C1382.67,2794.6800000000003,1662.99,2434.9,1662.99,2397.0299999999997C1662.99,2385.67,1613.74,2378.1,1549.34,2378.1C1439.49,2378.1,1435.7,2374.31,1435.7,2188.74L1435.7,1999.39L1674.35,1999.39C1897.85,1999.39,1920.58,1991.81,1958.46,1904.71C1984.98,1851.69,2003.92,1798.671,2003.92,1791.097C2003.92,1779.7359999999999,1886.49,1772.161,1738.75,1772.161L1473.58,1772.161L1473.58,1601.742C1473.58,1446.471,1481.16,1431.3229999999999,1568.28,1431.3229999999999C1678.14,1431.3229999999999,1678.14,1423.748,1609.95,1192.7350000000001L1556.92,1014.7419L1962.25,1014.7419L2007.71,1223.032C2072.1,1507.0639999999999,2166.81,1510.8519999999999,2250.15,1234.394ZM4564.69,1306.348C4534.39,1173.8,4496.5,1037.4646,4481.35,1003.3806C4462.41,946.57422,4492.72,939,4723.79,939L4992.75,939L5049.57,1135.929C5079.88,1245.755,5117.76,1382.09,5129.12,1438.897L5155.64,1544.9360000000001L4625.3,1544.9360000000001L4564.69,1306.348ZM5375.35,1507.065L5375.35,1052.613L7606.55,1052.613L7617.92,2537.15C7633.07,4063.35,7629.28,4040.63,7780.81,4392.83C7803.54,4453.43,7780.81,4461,7523.21,4461L7242.89,4461L7197.44,4245.139999999999C7170.92,4112.59,7155.77,3563.46,7155.77,2768.17L7155.77,1507.065L6398.14,1507.065L6398.14,2453.84L6966.36,2453.84L6966.36,2908.29L6398.14,2908.29L6398.14,4461L5943.57,4461L5935.99,3696.01L5924.63,2927.23L5614,2915.8599999999997L5299.59,2904.5L5299.59,2453.84L5943.57,2453.84L5943.57,1507.065L5375.35,1507.065ZM8746.78,1090.484L8746.78,1544.9360000000001L11853,1544.9360000000001L11853,1090.484L8746.78,1090.484ZM943.243,1961.52L943.243,1393.452L564.431,1393.452L564.431,1961.52L943.243,1961.52ZM4276.79,1734.2910000000002L4276.79,2150.87L4579.84,2150.87L4579.84,4461L5413.23,4461L5413.23,4044.42L5072.3,4044.42L5072.3,1734.2910000000002L4276.79,1734.2910000000002ZM8557.37,2605.3199999999997L8557.37,2378.1L8557.37,2150.87L12042.4,2150.87L12042.4,2605.3199999999997L11034.8,2612.9L10027.2,2624.26L9902.16,2965.1C9833.97,3150.66,9708.96,3464.99,9621.84,3661.92C9538.5,3858.85,9466.52,4025.48,9466.52,4033.06C9466.52,4040.63,9875.64,4044.42,10371.9,4044.42L11281,4044.42L11190.1,3790.68C11144.7,3646.77,11050,3396.83,10985.6,3230.19C10921.2,3063.56,10868.1,2923.44,10868.1,2919.65C10868.1,2912.08,10993.1,2908.29,11148.5,2908.29C11421.2,2908.29,11428.8,2912.08,11466.7,3010.54C11489.4,3071.14,11618.2,3411.97,11754.6,3775.54C11894.7,4139.1,12000.8,4438.280000000001,11993.2,4445.85C11985.6,4457.21,11235.6,4457.21,10330.2,4453.43L8682.38,4442.0599999999995L8883.15,4002.76C9049.83,3631.63,9428.64,2673.49,9428.64,2620.4700000000003C9428.64,2612.9,9231.66,2605.3199999999997,8993.01,2605.3199999999997L8557.37,2605.3199999999997ZM943.243,2908.29L943.243,2340.23L564.431,2340.23L564.431,2908.29L943.243,2908.29ZM2950.95,2681.06L2844.88,2529.58L2742.6,2381.88L2458.49,2378.1C2178.17,2378.1,2174.38,2381.88,2098.62,2503.0699999999997C2056.95,2567.45,2019.07,2635.62,2011.49,2650.77C2003.92,2669.7,2212.26,2681.06,2473.64,2681.06L2950.95,2681.06ZM1435.7,3892.94L1435.7,4195.9L2875.19,4195.9L2875.19,3892.94L1435.7,3892.94Z" fill-rule="evenodd" fill="#FFFFFF" fill-opacity="1"/></g><g><path d="M12325.5,1570.5L12384,1075.5L15052.5,1075.5L14994,1570.5L13909.5,1570.5L13563,4455L13032,4455L13378.5,1570.5L12325.5,1570.5ZM17986.5,1075.5L18517.5,1075.5L18103.5,4455L17572.5,4455L17986.5,1075.5Z" fill="#FFFFFF" fill-opacity="1"/><path d="M16731,1075.5Q16920,1075.5,17271,1084.5L17550,1089L17482.5,1588.5L17221.5,1579.5Q16771.5,1570.5,16659,1570.5L16461,1570.5Q16051.5,1570.5,15851.25,1777.5Q15651,1984.5,15588,2448L15507,3100.5Q15489,3280.5,15489,3352.5Q15489,3681,15644.25,3829.5Q15799.5,3978,16155,3978L16371,3978Q16609.5,3978,17145,3946.5L17257.5,3942L17221.5,4437Q16780.5,4473,16326,4473L16110,4473Q15516,4468.5,15237,4216.5Q14958,3964.5,14958,3424.5Q14958,3285,14980.5,3073.5L15048,2475Q15142.5,1741.5,15495.75,1410.75Q15849,1080,16533,1075.5L16731,1075.5ZM18571.5,4081.5Q18589.5,3964.5,18663.75,3899.25Q18738,3834,18850.5,3834L18981,3834Q19093.5,3834,19158.75,3899.25Q19224,3964.5,19206,4081.5L19188,4216.5Q19170,4338,19093.5,4405.5Q19017,4473,18904.5,4473L18774,4473Q18661.5,4473,18598.5,4405.5Q18535.5,4338,18553.5,4216.5L18571.5,4081.5Z" fill="#006FFC" fill-opacity="1"/></g></g></svg>