<svg xmlns="http://www.w3.org/2000/svg" xmlns:xlink="http://www.w3.org/1999/xlink" fill="none" version="1.1" width="35782.390625" height="5619.00390625" viewBox="0 0 35782.390625 5619.00390625"><g><g><path d="M35144,3285.5Q35162,3168.5,35236.25,3103.25Q35310.5,3038,35423,3038L35553.5,3038Q35666,3038,35731.25,3103.25Q35796.5,3168.5,35778.5,3285.5L35760.5,3420.5Q35742.5,3542,35666,3609.5Q35589.5,3677,35477,3677L35346.5,3677Q35234,3677,35171,3609.5Q35108,3542,35126,3420.5L35144,3285.5Z" fill="#006FFC" fill-opacity="1"/></g><g><path d="M7963.148046875,295.394C7993.448046875,189.355,8019.968046874999,75.7419,8019.968046874999,49.2322C8019.968046874999,15.1484,8084.368046875,0,8247.248046875,0C8372.258046875,0,8474.538046875,15.1484,8474.538046875,30.2969C8474.538046875,49.2322,8448.028046875,147.697,8417.718046875,249.948C8415.598046875,257.077,8413.548046875,263.996,8411.548046875,270.712C8372.208046875,402.98,8356.348046875,456.304,8375.748046875,477.802C8388.858046875,492.323,8418.048046875,492.323,8466.968046875,492.323C8565.458046875,492.323,8584.398046875,469.6,8645.008046875,284.032L8716.978046875,75.7419L9092.008046875,75.7419L9069.278046875,196.929C9054.128046875001,265.097,9035.178046875,359.774,9020.028046875,405.219C9001.088046875,477.174,9012.458046875,492.323,9076.848046875,492.323C9145.038046875,492.323,9156.398046875,515.045,9156.398046875,662.742L9156.398046875,833.161L8213.158046875,833.161L8152.548046875,946.774L8091.9380468750005,1060.39L9232.168046875,1060.39L9232.168046875,1439.1L8925.328046875,1439.1L9099.578046875,1666.32L9273.838046875,1893.55L9122.308046875,1893.55C9038.968046875,1893.55,8963.208046875,1904.91,8955.628046875001,1920.06C8944.268046875,1938.99,8925.328046875,2063.97,8910.178046875,2207.88L8883.658046875,2461.61L9232.168046875,2461.61L9232.168046875,2859.26C9232.168046875,3124.36,9213.228046875,3302.35,9179.128046875001,3389.45Q9122.308046875,3522,8872.298046875,3522L8618.488046875,3522L8701.828046875,3389.45C8751.078046875,3309.92,8792.738046875,3166.01,8804.108046875,3029.68L8826.838046875,2802.45L7292.648046875,2802.45L7315.378046875,2582.8C7347.208046875,2316.83,7355.838046875,2217.34,7408.448046875,2180.29C7439.888046875,2158.15,7487.028046875,2158.32,7564.208046875,2158.58C7573.038046875,2158.61,7582.268046875,2158.65,7591.908046875,2158.65L7804.038046875,2158.65L7777.528046875001,2310.13L7754.798046875,2461.61L8095.728046875,2461.61C8341.958046875,2461.61,8436.658046875,2450.25,8436.658046875,2412.38C8436.658046875,2389.66,8448.028046875,2302.55,8459.388046875,2223.03L8485.908046875,2082.9L7300.218046875,2082.9L7300.218046875,1984.44C7300.218046875,1897.34,7288.858046875,1889.76,7178.998046875,1901.12L7053.998046875,1912.48L7031.268046875,2632.03C7016.108046875,3025.89,6993.388046875,3389.45,6978.228046875,3434.9C6951.718046875,3514.43,6925.198046875,3522,6709.278046875,3522L6470.623046875,3522L6550.173046875,3340.22C6610.783046875,3207.67,6637.298046875,3059.97,6648.668046875,2753.22L6667.608046875,2348L6292.581046875,2348L6250.912046875,2832.75C6228.1830468749995,3097.85,6190.302046875,3359.15,6167.573046875,3415.96C6129.691046875,3514.43,6110.751046875,3522,5921.345046875,3522L5712.998046875,3522L5777.396046875,3359.15C5830.430046875,3222.82,5841.794046875,2995.59,5853.159046875,1636.03L5864.523046875,75.7419L7035.0580468749995,75.7419L7035.0580468749995,965.71C7035.0580468749995,1454.25,7050.208046875,1855.68,7065.358046875,1855.68C7095.668046875,1855.68,7375.988046875,1495.9,7375.988046875,1458.03C7375.988046875,1446.67,7326.738046875,1439.1,7262.338046875,1439.1C7152.488046875,1439.1,7148.698046875,1435.31,7148.698046875,1249.74L7148.698046875,1060.39L7387.348046875,1060.39C7610.848046875,1060.39,7633.578046875,1052.81,7671.458046875,965.71C7697.978046875,912.69,7716.918046875,859.671,7716.918046875,852.097C7716.918046875,840.736,7599.488046875,833.161,7451.748046875,833.161L7186.578046875,833.161L7186.578046875,662.742C7186.578046875,507.471,7194.158046875,492.323,7281.278046875,492.323C7391.138046875,492.323,7391.138046875,484.748,7322.948046875,253.735L7269.918046875,75.7419L7675.248046875,75.7419L7720.708046875,284.032C7785.098046875,568.064,7879.8080468749995,571.852,7963.148046875,295.394ZM10277.688046874999,367.348C10247.388046875,234.8,10209.498046875,98.4646,10194.348046875,64.3806C10175.408046875,7.57422,10205.718046875001,0,10436.788046875,0L10705.748046875,0L10762.568046875,196.929C10792.878046875001,306.755,10830.758046875,443.09,10842.118046874999,499.897L10868.638046875,605.936L10338.298046875,605.936L10277.688046874999,367.348ZM18691.098046875,814.226C18785.798046875,666.529,18922.198046875,424.155,18994.198046875,272.671L19126.698046875,0L20009.398046875,0L20119.198046875,212.077C20179.798046875,325.69,20319.998046875,575.639,20429.898046875,761.207L20630.598046875,1098.26L20028.298046875,1098.26L19914.698046875,897.542C19850.298046875,791.503,19751.798046875,602.148,19694.998046875,484.748C19638.098046875,367.348,19585.098046875,268.884,19573.698046875,268.884C19562.398046875,268.884,19482.798046875,420.368,19391.898046875,598.361C19238.398046875,905.232,19181.798046875,1025.23,19088.898046875,1069.7C19029.398046875,1098.21,18954.998046875,1095.68,18830.698046875,1091.43C18823.498046875,1091.19,18816.098046875,1090.94,18808.498046875,1090.68L18516.898046875,1079.32L18691.098046875,814.226ZM21293.598046875,3359.15C21486.698046875,3029.68,21505.698046875,2863.05,21505.698046875,1374.72L21505.698046875,0L21998.098046875,0L21998.098046875,1389.86C21998.098046875,2719.14,21982.998046875,3010.74,21884.498046875,3366.73L21842.798046875,3522L21198.898046875,3522L21293.598046875,3359.15ZM22767.098046875,1730.7C22975.498046875,1268.68,23323.998046875,215.865,23323.998046875,53.0193C23323.998046875,11.3613,23388.398046875,0,23608.098046875,0C23763.398046875,0,23892.198046875,7.57422,23892.198046875,15.1484C23892.198046875,22.7227,23842.998046875,200.716,23778.598046875,409.006L23664.898046875,791.503L23664.898046875,3522L23134.598046875,3522L23134.598046875,1779.94L22941.398046875,1779.94C22801.198046875,1779.94,22751.998046875,1768.57,22767.098046875,1730.7ZM23922.498046875,867.245C23983.098046875,693.039,24062.698046875,424.155,24100.598046875,272.671L24172.498046875,0L24657.398046875,0L24634.698046875,132.548L24608.198046875,265.097L26316.598046875,265.097L26316.598046875,719.548L25142.298046875,719.548L25142.298046875,1287.61L26202.998046875,1287.61L26202.998046875,1704.19L25142.298046875,1704.19L25142.298046875,2310.13L26202.998046875,2310.13L26202.998046875,2764.58L25142.298046875,2764.58L25142.298046875,3522L24649.798046875,3522L24642.298046875,2128.35C24630.898046875,772.568,24630.898046875,738.484,24555.098046875,727.123C24494.498046875,719.548,24464.198046875,761.207,24403.598046875,954.349L24327.798046875,1192.94L24070.198046875,1204.3C23930.098046875,1211.87,23816.398046875,1208.08,23816.398046875,1200.51C23816.398046875,1192.94,23865.698046875,1045.24,23922.498046875,867.245ZM28415.198046875,378.71C28411.398046875,348.413,28400.098046875,249.949,28384.898046875,159.059L28354.598046875,0L28998.598046875,0L29036.498046875,121.187C29059.198046875,189.355,29085.698046875,291.606,29097.098046875,348.413L29119.798046875,454.452L29767.598046875,462.026L30415.398046875,473.387L30036.498046875,1041.45Q29814.898046875,1370.93,29400.098046875,1922.9Q28977.798046875,2438.89,28740.998046875,2696.41C28551.598046875,2897.13,28400.098046875,3071.34,28400.098046875,3082.7C28400.098046875,3094.06,28884.998046875,3105.42,29479.698046875,3105.42L30559.298046875,3105.42L30559.298046875,3522L28252.298046875,3522L28206.898046875,3438.68C28184.198046875,3389.45,28157.598046875,3344.01,28150.098046875,3336.43C28142.498046875,3328.86,28085.698046875,3366.73,28021.298046875,3423.54C27907.598046875,3514.43,27877.298046875,3522,27502.298046875,3522L27104.498046875,3522L27714.398046875,2931.21C28051.598046875,2605.52,28483.398046875,2158.65,28672.798046875,1938.99C29040.298046875,1511.05,29460.698046875,961.923,29460.698046875,905.117C29460.698046875,886.181,28975.898046875,871.033,28305.398046875,871.033L27149.998046875,871.033L27149.998046875,454.452L27786.398046875,446.878C28320.498046875,435.517,28418.998046875,427.942,28415.198046875,378.71ZM31544.198046875,1590.58L31544.198046875,75.7419L34536.798046875,75.7419L34536.798046875,1590.58L31544.198046875,1590.58ZM11088.348046875,568.065L11088.348046875,113.613L13319.548046875,113.613L13330.918046875,1598.15C13346.068046875,3124.35,13342.278046874999,3101.63,13493.808046875001,3453.83C13516.538046875,3514.43,13493.808046875001,3522,13236.208046875,3522L12955.888046875,3522L12910.438046874999,3306.14C12883.918046875,3173.59,12868.768046875,2624.46,12868.768046875,1829.17L12868.768046875,568.065L12111.138046875,568.065L12111.138046875,1514.84L12679.358046875,1514.84L12679.358046875,1969.29L12111.138046875,1969.29L12111.138046875,3522L11656.568046875,3522L11648.988046875,2757.01L11637.628046875001,1988.23L11326.998046875,1976.86L11012.588046875,1965.5L11012.588046875,1514.84L11656.568046875,1514.84L11656.568046875,568.065L11088.348046875,568.065ZM14459.778046875,151.484L14459.778046875,605.936L17565.998046875,605.936L17565.998046875,151.484L14459.778046875,151.484ZM20785.898046875,227.226L20785.898046875,2840.32L21240.498046875,2840.32L21240.498046875,227.226L20785.898046875,227.226ZM34025.398046875,662.742L34025.398046875,397.645L33051.898046875,386.284L32074.598046875,378.71L32074.598046875,681.677L33051.898046875,674.103L34025.398046875,662.742ZM6656.238046875,1022.52L6656.238046875,454.452L6277.4290468750005,454.452L6277.4290468750005,1022.52L6656.238046875,1022.52ZM9989.788046875,795.291L9989.788046875,1211.87L10292.838046875,1211.87L10292.838046875,3522L11126.228046875,3522L11126.228046875,3105.42L10785.298046875,3105.42L10785.298046875,795.291L9989.788046875,795.291ZM34044.398046875,1249.74L34044.398046875,984.645L32074.598046875,984.645L32074.598046875,1249.74L34044.398046875,1249.74ZM14270.368046875,1666.32L14270.368046875,1439.1L14270.368046875,1211.87L17755.398046875,1211.87L17755.398046875,1666.32L16747.798046875,1673.9L15740.198046875,1685.26L15615.158046875,2026.1C15546.968046875,2211.66,15421.958046875,2525.99,15334.838046875,2722.92C15251.498046875,2919.85,15179.518046875,3086.48,15179.518046875,3094.06C15179.518046875,3101.63,15588.638046875,3105.42,16084.898046875,3105.42L16993.998046875,3105.42L16903.098046875,2851.68C16857.698046875,2707.77,16762.998046875,2457.83,16698.598046875,2291.19C16634.198046875,2124.56,16581.098046875,1984.44,16581.098046875,1980.65C16581.098046875,1973.08,16706.098046875,1969.29,16861.498046875,1969.29C17134.198046875,1969.29,17141.798046875,1973.08,17179.698046875,2071.54C17202.398046875,2132.14,17331.198046875,2472.97,17467.598046875,2836.54C17607.698046875,3200.1,17713.798046875,3499.28,17706.198046875,3506.85C17698.598046875,3518.21,16948.598046875,3518.21,16043.198046875,3514.43L14395.378046875,3503.06L14596.148046875,3063.76C14762.828046875,2692.63,15141.638046875,1734.49,15141.638046875,1681.47C15141.638046875,1673.9,14944.658046875,1666.32,14706.008046875,1666.32L14270.368046875,1666.32ZM18626.698046875,3522L18626.698046875,1249.74L20490.498046875,1249.74L20475.298046875,1806.45C20467.698046875,2272.26,20452.598046875,2393.45,20388.198046875,2518.42L20312.398046875,2669.9L20009.398046875,2681.26L19710.098046875,2692.63L19789.698046875,2605.52C19929.798046875,2457.83,19990.398046875,2257.11,19990.398046875,1950.35L19990.398046875,1666.32L19119.198046875,1666.32L19119.198046875,3105.42L20596.498046875,3105.42L20596.498046875,3522L18626.698046875,3522ZM6656.238046875,1969.29L6656.238046875,1401.23L6277.4290468750005,1401.23L6277.4290468750005,1969.29L6656.238046875,1969.29ZM8663.948046875,1742.06L8557.878046875001,1590.58L8455.598046875,1442.88L8171.488046875,1439.1C7891.168046875,1439.1,7887.378046875,1442.88,7811.618046875,1564.07C7769.948046875,1628.45,7732.068046875,1696.62,7724.488046875,1711.77C7716.918046875,1730.7,7925.258046875,1742.06,8186.638046874999,1742.06L8663.948046875,1742.06ZM32794.298046875,1666.32L33362.498046875,1666.32L33362.498046875,1893.55L34688.398046875,1893.55L34688.398046875,2234.39L33358.698046875,2234.39L33370.098046875,2374.51L33381.498046875,2518.42L34017.898046875,2529.78L34650.498046875,2537.35L34650.498046875,2878.19L33362.498046875,2878.19L33362.498046875,3181.16L34801.998046875,3181.16L34801.998046875,3522L31354.798046875,3522L31354.798046875,3181.16L32794.298046875,3181.16L32794.298046875,2878.19L31582.098046875,2878.19L31582.098046875,2541.14L32180.598046875,2529.78L32775.398046875,2518.42L32786.698046875,2374.51L32798.098046875,2234.39L32396.498046875,2234.39C32006.398046875,2234.39,31994.998046875,2238.17,31953.298046875,2329.06C31911.698046875,2416.17,31892.698046875,2423.74,31623.798046875,2423.74L31335.898046875,2423.74L31506.298046875,2063.97L31676.798046875,1704.19L31938.198046875,1704.19Q32150.698046875,1704.19,32172.398046875,1768.61Q32176.998046875,1782.29,32172.998046875,1798.87L32150.298046875,1893.55L32794.298046875,1893.55L32794.298046875,1666.32ZM7148.698046875,2953.94L7148.698046875,3256.9L8588.188046875,3256.9L8588.188046875,2953.94L7148.698046875,2953.94ZM15194.998046875,5569C15168.998046875,5577,15138.998046875,5585,15088.998046875,5585C14952.998046875,5585,14896.998046875,5497,14896.998046875,5343L14896.998046875,3967L15080.998046875,3967L15080.998046875,5355C15080.998046875,5411,15102.998046875,5433,15130.998046875,5433C15140.998046875,5433,15148.998046875,5433,15168.998046875,5429L15194.998046875,5569ZM18590.998046875,5431C18506.998046875,5515,18390.998046875,5585,18260.998046875,5585C17988.998046875,5585,17812.998046875,5379,17812.998046875,5017C17812.998046875,4665,18034.998046875,4445,18282.998046875,4445C18410.998046875,4445,18492.998046875,4493,18588.998046875,4571L18578.998046875,4385L18578.998046875,3967L18762.998046875,3967L18762.998046875,5559L18612.998046875,5559L18596.998046875,5431L18590.998046875,5431ZM28960.998046875,4127C28960.998046875,4201,28910.998046875,4249,28838.998046875,4249C28766.998046875,4249,28718.998046875,4201,28718.998046875,4127C28718.998046875,4057,28766.998046875,4009,28838.998046875,4009C28910.998046875,4009,28960.998046875,4057,28960.998046875,4127ZM30264.998046875,4127C30264.998046875,4201,30214.998046875,4249,30142.998046875,4249C30070.998046875,4249,30022.998046875,4201,30022.998046875,4127C30022.998046875,4057,30070.998046875,4009,30142.998046875,4009C30214.998046875,4009,30264.998046875,4057,30264.998046875,4127ZM32664.998046875,4127C32664.998046875,4201,32614.998046875,4249,32542.998046875,4249C32470.998046875,4249,32422.998046875,4201,32422.998046875,4127C32422.998046875,4057,32470.998046875,4009,32542.998046875,4009C32614.998046875,4009,32664.998046875,4057,32664.998046875,4127ZM14640.998046875,5375C14524.998046875,5509,14380.998046875,5585,14190.998046875,5585C13824.998046875,5585,13552.998046875,5303,13552.998046875,4827C13552.998046875,4353,13830.998046875,4067,14202.998046875,4067C14380.998046875,4067,14520.998046875,4153,14604.998046875,4247L14504.998046875,4367C14426.998046875,4285,14330.998046875,4229,14204.998046875,4229C13928.998046875,4229,13742.998046875,4455,13742.998046875,4821C13742.998046875,5191,13918.998046875,5423,14198.998046875,5423C14338.998046875,5423,14444.998046875,5361,14538.998046875,5257L14640.998046875,5375ZM20598.998046875,5375C20482.998046875,5509,20338.998046875,5585,20148.998046875,5585C19782.998046875,5585,19510.998046875,5303,19510.998046875,4827C19510.998046875,4353,19788.998046875,4067,20160.998046875,4067C20338.998046875,4067,20478.998046875,4153,20562.998046875,4247L20462.998046875,4367C20384.998046875,4285,20288.998046875,4229,20162.998046875,4229C19886.998046875,4229,19700.998046875,4455,19700.998046875,4821C19700.998046875,5191,19876.998046875,5423,20156.998046875,5423C20296.998046875,5423,20402.998046875,5361,20496.998046875,5257L20598.998046875,5375ZM6248.998046875,5559L6062.998046875,5559L6062.998046875,4249L5618.998046875,4249L5618.998046875,4093L6692.998046875,4093L6692.998046875,4249L6248.998046875,4249L6248.998046875,5559ZM27142.998046875,5559L26958.998046875,5559L26958.998046875,4093L27142.998046875,4093L27142.998046875,5559ZM12960.998046875,5545C12898.998046875,5565,12826.998046875,5585,12758.998046875,5585C12528.998046875,5585,12450.998046875,5441,12450.998046875,5223L12450.998046875,4621L12288.998046875,4621L12288.998046875,4483L12460.998046875,4473L12480.998046875,4167L12632.998046875,4167L12632.998046875,4473L12928.998046875,4473L12928.998046875,4621L12632.998046875,4621L12632.998046875,5229C12632.998046875,5361,12674.998046875,5437,12800.998046875,5437C12840.998046875,5437,12888.998046875,5423,12924.998046875,5407L12960.998046875,5545ZM24322.998046875,5545C24260.998046875,5565,24188.998046875,5585,24120.998046875,5585C23890.998046875,5585,23812.998046875,5441,23812.998046875,5223L23812.998046875,4621L23650.998046875,4621L23650.998046875,4483L23822.998046875,4473L23842.998046875,4167L23994.998046875,4167L23994.998046875,4473L24290.998046875,4473L24290.998046875,4621L23994.998046875,4621L23994.998046875,5229C23994.998046875,5361,24036.998046875,5437,24162.998046875,5437C24202.998046875,5437,24250.998046875,5423,24286.998046875,5407L24322.998046875,5545ZM29838.998046875,5545C29776.998046875,5565,29704.998046875,5585,29636.998046875,5585C29406.998046875,5585,29328.998046875,5441,29328.998046875,5223L29328.998046875,4621L29166.998046875,4621L29166.998046875,4483L29338.998046875,4473L29358.998046875,4167L29510.998046875,4167L29510.998046875,4473L29806.998046875,4473L29806.998046875,4621L29510.998046875,4621L29510.998046875,5229C29510.998046875,5361,29552.998046875,5437,29678.998046875,5437C29718.998046875,5437,29766.998046875,5423,29802.998046875,5407L29838.998046875,5545ZM32238.998046875,5545C32176.998046875,5565,32104.998046875,5585,32036.998046875,5585C31806.998046875,5585,31728.998046875,5441,31728.998046875,5223L31728.998046875,4621L31566.998046875,4621L31566.998046875,4483L31738.998046875,4473L31758.998046875,4167L31910.998046875,4167L31910.998046875,4473L32206.998046875,4473L32206.998046875,4621L31910.998046875,4621L31910.998046875,5229C31910.998046875,5361,31952.998046875,5437,32078.998046875,5437C32118.998046875,5437,32166.998046875,5423,32202.998046875,5407L32238.998046875,5545ZM7586.998046875,5475C7492.998046875,5537,7376.998046875,5585,7230.998046875,5585C6940.998046875,5585,6710.998046875,5375,6710.998046875,5017C6710.998046875,4663,6948.998046875,4445,7196.998046875,4445C7474.998046875,4445,7630.998046875,4645,7630.998046875,4955C7630.998046875,4995,7626.998046875,5031,7622.998046875,5059L6890.998046875,5059C6902.998046875,5291,7044.998046875,5439,7250.998046875,5439C7356.998046875,5439,7440.998046875,5407,7522.998046875,5353L7586.998046875,5475ZM8082.998046875,5559L7898.998046875,5559L7898.998046875,4473L8048.998046875,4473L8066.998046875,4631L8070.998046875,4631C8172.998046875,4527,8286.998046875,4445,8434.998046875,4445C8662.998046875,4445,8766.998046875,4595,8766.998046875,4871L8766.998046875,5559L8584.998046875,5559L8584.998046875,4895C8584.998046875,4691,8522.998046875,4605,8378.998046875,4605C8266.998046875,4605,8190.998046875,4661,8082.998046875,4771L8082.998046875,5559ZM9898.998046875,5449C9800.998046875,5533,9676.998046875,5585,9546.998046875,5585C9258.998046875,5585,9038.998046875,5377,9038.998046875,5017C9038.998046875,4655,9280.998046875,4445,9560.998046875,4445C9702.998046875,4445,9800.998046875,4505,9876.998046875,4573L9784.998046875,4693C9722.998046875,4637,9652.998046875,4599,9568.998046875,4599C9370.998046875,4599,9226.998046875,4767,9226.998046875,5017C9226.998046875,5267,9362.998046875,5433,9562.998046875,5433C9662.998046875,5433,9750.998046875,5385,9818.998046875,5325L9898.998046875,5449ZM10886.998046875,5475C10792.998046875,5537,10676.998046875,5585,10530.998046875,5585C10240.998046875,5585,10010.998046875,5375,10010.998046875,5017C10010.998046875,4663,10248.998046875,4445,10496.998046875,4445C10774.998046875,4445,10930.998046875,4645,10930.998046875,4955C10930.998046875,4995,10926.998046875,5031,10922.998046875,5059L10190.998046875,5059C10202.998046875,5291,10344.998046875,5439,10550.998046875,5439C10656.998046875,5439,10740.998046875,5407,10822.998046875,5353L10886.998046875,5475ZM11382.998046875,5559L11198.998046875,5559L11198.998046875,4473L11348.998046875,4473L11366.998046875,4631L11370.998046875,4631C11472.998046875,4527,11586.998046875,4445,11734.998046875,4445C11962.998046875,4445,12066.998046875,4595,12066.998046875,4871L12066.998046875,5559L11884.998046875,5559L11884.998046875,4895C11884.998046875,4691,11822.998046875,4605,11678.998046875,4605C11566.998046875,4605,11490.998046875,4661,11382.998046875,4771L11382.998046875,5559ZM16388.998046875,5017C16388.998046875,5377,16152.998046875,5585,15886.998046875,5585C15620.998046875,5585,15384.998046875,5377,15384.998046875,5017C15384.998046875,4655,15620.998046875,4445,15886.998046875,4445C16152.998046875,4445,16388.998046875,4655,16388.998046875,5017ZM21038.998046875,5559L20854.998046875,5559L20854.998046875,4473L21004.998046875,4473L21022.998046875,4671L21026.998046875,4671C21102.998046875,4533,21214.998046875,4445,21334.998046875,4445C21382.998046875,4445,21416.998046875,4451,21450.998046875,4469L21416.998046875,4627C21380.998046875,4615,21356.998046875,4609,21310.998046875,4609C21220.998046875,4609,21110.998046875,4677,21038.998046875,4861L21038.998046875,5559ZM22404.998046875,5475C22310.998046875,5537,22194.998046875,5585,22048.998046875,5585C21758.998046875,5585,21528.998046875,5375,21528.998046875,5017C21528.998046875,4663,21766.998046875,4445,22014.998046875,4445C22292.998046875,4445,22448.998046875,4645,22448.998046875,4955C22448.998046875,4995,22444.998046875,5031,22440.998046875,5059L21708.998046875,5059C21720.998046875,5291,21862.998046875,5439,22068.998046875,5439C22174.998046875,5439,22258.998046875,5407,22340.998046875,5353L22404.998046875,5475ZM23294.998046875,5429C23190.998046875,5515,23068.998046875,5585,22934.998046875,5585C22752.998046875,5585,22618.998046875,5473,22618.998046875,5277C22618.998046875,5041,22822.998046875,4923,23284.998046875,4871C23284.998046875,4731,23238.998046875,4597,23060.998046875,4597C22934.998046875,4597,22820.998046875,4655,22734.998046875,4713L22664.998046875,4587C22762.998046875,4523,22914.998046875,4445,23090.998046875,4445C23356.998046875,4445,23466.998046875,4621,23466.998046875,4891L23466.998046875,5559L23316.998046875,5559L23300.998046875,5429L23294.998046875,5429ZM25428.998046875,5017C25428.998046875,5377,25192.998046875,5585,24926.998046875,5585C24660.998046875,5585,24424.998046875,5377,24424.998046875,5017C24424.998046875,4655,24660.998046875,4445,24926.998046875,4445C25192.998046875,4445,25428.998046875,4655,25428.998046875,5017ZM25900.998046875,5559L25716.998046875,5559L25716.998046875,4473L25866.998046875,4473L25884.998046875,4671L25888.998046875,4671C25964.998046875,4533,26076.998046875,4445,26196.998046875,4445C26244.998046875,4445,26278.998046875,4451,26312.998046875,4469L26278.998046875,4627C26242.998046875,4615,26218.998046875,4609,26172.998046875,4609C26082.998046875,4609,25972.998046875,4677,25900.998046875,4861L25900.998046875,5559ZM27710.998046875,5559L27526.998046875,5559L27526.998046875,4473L27676.998046875,4473L27694.998046875,4631L27698.998046875,4631C27800.998046875,4527,27914.998046875,4445,28062.998046875,4445C28290.998046875,4445,28394.998046875,4595,28394.998046875,4871L28394.998046875,5559L28212.998046875,5559L28212.998046875,4895C28212.998046875,4691,28150.998046875,4605,28006.998046875,4605C27894.998046875,4605,27818.998046875,4661,27710.998046875,4771L27710.998046875,5559ZM31210.998046875,5429C31106.998046875,5515,30984.998046875,5585,30850.998046875,5585C30668.998046875,5585,30534.998046875,5473,30534.998046875,5277C30534.998046875,5041,30738.998046875,4923,31200.998046875,4871C31200.998046875,4731,31154.998046875,4597,30976.998046875,4597C30850.998046875,4597,30736.998046875,4655,30650.998046875,4713L30580.998046875,4587C30678.998046875,4523,30830.998046875,4445,31006.998046875,4445C31272.998046875,4445,31382.998046875,4621,31382.998046875,4891L31382.998046875,5559L31232.998046875,5559L31216.998046875,5429L31210.998046875,5429ZM34830.998046875,5475C34736.998046875,5537,34620.998046875,5585,34474.998046875,5585C34184.998046875,5585,33954.998046875,5375,33954.998046875,5017C33954.998046875,4663,34192.998046875,4445,34440.998046875,4445C34718.998046875,4445,34874.998046875,4645,34874.998046875,4955C34874.998046875,4995,34870.998046875,5031,34866.998046875,5059L34134.998046875,5059C34146.998046875,5291,34288.998046875,5439,34494.998046875,5439C34600.998046875,5439,34684.998046875,5407,34766.998046875,5353L34830.998046875,5475ZM17352.998046875,5389C17250.998046875,5507,17142.998046875,5585,16994.998046875,5585C16764.998046875,5585,16660.998046875,5439,16660.998046875,5161L16660.998046875,4473L16844.998046875,4473L16844.998046875,5139C16844.998046875,5341,16904.998046875,5427,17048.998046875,5427C17160.998046875,5427,17238.998046875,5371,17342.998046875,5243L17342.998046875,4473L17524.998046875,4473L17524.998046875,5559L17372.998046875,5559L17358.998046875,5389L17352.998046875,5389ZM28930.998046875,4473L28930.998046875,5559L28746.998046875,5559L28746.998046875,4473L28930.998046875,4473ZM30234.998046875,4473L30234.998046875,5559L30050.998046875,5559L30050.998046875,4473L30234.998046875,4473ZM32634.998046875,4473L32634.998046875,5559L32450.998046875,5559L32450.998046875,4473L32634.998046875,4473ZM33448.998046875,5559L33234.998046875,5559L32842.998046875,4473L33032.998046875,4473L33236.998046875,5091C33270.998046875,5197,33304.998046875,5307,33336.998046875,5411L33346.998046875,5411C33378.998046875,5307,33414.998046875,5197,33446.998046875,5091L33652.998046875,4473L33832.998046875,4473L33448.998046875,5559ZM7200.998046875,4591C7046.998046875,4591,6910.998046875,4713,6888.998046875,4929L7470.998046875,4929C7470.998046875,4709,7370.998046875,4591,7200.998046875,4591ZM10500.998046875,4591C10346.998046875,4591,10210.998046875,4713,10188.998046875,4929L10770.998046875,4929C10770.998046875,4709,10670.998046875,4591,10500.998046875,4591ZM22018.998046875,4591C21864.998046875,4591,21728.998046875,4713,21706.998046875,4929L22288.998046875,4929C22288.998046875,4709,22188.998046875,4591,22018.998046875,4591ZM34444.998046875,4591C34290.998046875,4591,34154.998046875,4713,34132.998046875,4929L34714.998046875,4929C34714.998046875,4709,34614.998046875,4591,34444.998046875,4591ZM15572.998046875,5017C15572.998046875,5267,15698.998046875,5433,15886.998046875,5433C16074.998046875,5433,16202.998046875,5267,16202.998046875,5017C16202.998046875,4767,16074.998046875,4599,15886.998046875,4599C15698.998046875,4599,15572.998046875,4767,15572.998046875,5017ZM18000.998046875,5015C18000.998046875,5277,18110.998046875,5431,18300.998046875,5431C18400.998046875,5431,18488.998046875,5383,18578.998046875,5283L18578.998046875,4713C18488.998046875,4631,18404.998046875,4599,18314.998046875,4599C18140.998046875,4599,18000.998046875,4767,18000.998046875,5015ZM24612.998046875,5017C24612.998046875,5267,24738.998046875,5433,24926.998046875,5433C25114.998046875,5433,25242.998046875,5267,25242.998046875,5017C25242.998046875,4767,25114.998046875,4599,24926.998046875,4599C24738.998046875,4599,24612.998046875,4767,24612.998046875,5017ZM22794.998046875,5265C22794.998046875,5389,22878.998046875,5437,22986.998046875,5437C23090.998046875,5437,23178.998046875,5389,23284.998046875,5295L23284.998046875,4993C22918.998046875,5035,22794.998046875,5125,22794.998046875,5265ZM30710.998046875,5265C30710.998046875,5389,30794.998046875,5437,30902.998046875,5437C31006.998046875,5437,31094.998046875,5389,31200.998046875,5295L31200.998046875,4993C30834.998046875,5035,30710.998046875,5125,30710.998046875,5265Z" fill-rule="evenodd" fill="#FFFFFF" fill-opacity="1"/></g><g><path d="M18691.254,814.226C18785.957,666.529,18922.332,424.155,18994.305,272.671L19126.889,0L20009.52,0L20119.38,212.077C20179.99,325.69,20320.15,575.639,20430,761.207L20630.77,1098.26L20028.46,1098.26L19914.82,897.542C19850.42,791.503,19751.93,602.148,19695.11,484.748C19638.29,367.348,19585.25,268.884,19573.89,268.884C19562.52,268.884,19482.972999999998,420.368,19392.059,598.361C19238.581,905.232,19181.926,1025.23,19089.091,1069.7C19029.569,1098.21,18955.174,1095.68,18830.848,1091.43C18823.632,1091.19,18816.247,1090.94,18808.688,1090.68L18517,1079.32L18691.254,814.226ZM21293.7,3359.15C21486.89,3029.68,21505.83,2863.05,21505.83,1374.72L21505.83,0L21998.29,0L21998.29,1389.86C21998.29,2719.14,21983.13,3010.74,21884.64,3366.73L21842.97,3522L21198.989999999998,3522L21293.7,3359.15ZM23324.13,53.0193C23324.13,215.865,22975.62,1268.68,22767.27,1730.7C22752.12,1768.57,22801.37,1779.94,22941.53,1779.94L23134.72,1779.94L23134.72,3522L23665.06,3522L23665.06,791.503L23778.7,409.006C23843.1,200.716,23892.35,22.7227,23892.35,15.1484C23892.35,7.57422,23763.55,0,23608.239999999998,0C23388.53,0,23324.13,11.3613,23324.13,53.0193ZM24100.7,272.671C24062.81,424.155,23983.260000000002,693.039,23922.65,867.245C23865.83,1045.24,23816.59,1192.94,23816.59,1200.51C23816.59,1208.08,23930.23,1211.87,24070.39,1204.3L24327.98,1192.94L24403.739999999998,954.349C24464.36,761.207,24494.66,719.548,24555.27,727.123C24631.03,738.484,24631.03,772.568,24642.4,2128.35L24649.97,3522L25142.43,3522L25142.43,2764.58L26203.11,2764.58L26203.11,2310.13L25142.43,2310.13L25142.43,1704.19L26203.11,1704.19L26203.11,1287.61L25142.43,1287.61L25142.43,719.548L26316.75,719.548L26316.75,265.097L24608.3,265.097L24634.82,132.548L24657.55,0L24172.67,0L24100.7,272.671ZM28385.059999999998,159.059C28400.21,249.949,28411.58,348.413,28415.370000000003,378.71C28419.15,427.942,28320.66,435.517,27786.54,446.878L27150.129999999997,454.452L27150.129999999997,871.033L28305.510000000002,871.033C28976,871.033,29460.9,886.181,29460.9,905.117C29460.9,961.923,29040.4,1511.05,28673,1938.99C28483.55,2158.65,28051.71,2605.52,27714.559999999998,2931.21L27104.68,3522L27502.43,3522C27877.46,3522,27907.760000000002,3514.43,28021.4,3423.54C28085.8,3366.73,28142.620000000003,3328.86,28150.2,3336.43C28157.78,3344.01,28184.29,3389.45,28207.02,3438.68L28252.48,3522L30559.4,3522L30559.4,3105.42L29479.8,3105.42C28885.1,3105.42,28400.22,3094.06,28400.22,3082.7C28400.22,3071.34,28551.7,2897.13,28741.2,2696.41C29214.7,2181.37,29593.5,1700.41,30036.7,1041.45L30415.5,473.387L29767.7,462.026L29120,454.452L29097.2,348.413C29085.9,291.606,29059.4,189.355,29036.6,121.187L28998.7,0L28354.77,0L28385.059999999998,159.059ZM31544.4,1590.58L31544.4,75.7419L34537,75.7419L34537,1590.58L31544.4,1590.58ZM20786.09,2840.32L20786.09,227.226L21240.66,227.226L21240.66,2840.32L20786.09,2840.32ZM34025.6,662.742L34025.6,397.645L33052,386.284L32074.7,378.71L32074.7,681.677L33052,674.103L34025.6,662.742ZM34044.5,1249.74L34044.5,984.645L32074.7,984.645L32074.7,1249.74L34044.5,1249.74ZM18626.855,1249.74L18626.855,3522L20596.68,3522L20596.68,3105.42L19119.312,3105.42L19119.312,1666.32L19990.58,1666.32L19990.58,1950.35C19990.58,2257.11,19929.97,2457.83,19789.81,2605.52L19710.26,2692.63L20009.52,2681.26L20312.57,2669.9L20388.33,2518.42C20452.73,2393.45,20467.88,2272.26,20475.46,1806.45L20490.61,1249.74L18626.855,1249.74ZM33362.7,1666.32L32794.4,1666.32L32794.4,1893.55L32150.5,1893.55L32173.2,1798.87Q32177.2,1782.29,32172.5,1768.61Q32150.8,1704.19,31938.3,1704.19L31676.9,1704.19L31506.5,2063.97L31336,2423.74L31623.9,2423.74C31892.9,2423.74,31911.8,2416.17,31953.5,2329.06C31995.1,2238.17,32006.5,2234.39,32396.7,2234.39L32798.2,2234.39L32786.9,2374.51L32775.5,2518.42L32180.8,2529.78L31582.2,2541.14L31582.2,2878.19L32794.4,2878.19L32794.4,3181.16L31355,3181.16L31355,3522L34802.1,3522L34802.1,3181.16L33362.7,3181.16L33362.7,2878.19L34650.6,2878.19L34650.6,2537.35L34018,2529.78L33381.6,2518.42L33370.2,2374.51L33358.9,2234.39L34688.5,2234.39L34688.5,1893.55L33362.7,1893.55L33362.7,1666.32Z" fill-rule="evenodd" fill="#FFFFFF" fill-opacity="1"/></g><g><path d="M7948.15,295.394C7978.45,189.355,8004.969999999999,75.7419,8004.969999999999,49.2322C8004.969999999999,15.1484,8069.37,0,8232.25,0C8357.26,0,8459.54,15.1484,8459.54,30.2969C8459.54,49.2322,8433.03,147.697,8402.72,249.948C8358.91,397.483,8340.36,455.212,8360.75,477.802C8373.86,492.323,8403.05,492.323,8451.97,492.323C8550.46,492.323,8569.4,469.6,8630.01,284.032L8701.98,75.7419L9077.01,75.7419L9054.28,196.929C9039.130000000001,265.097,9020.18,359.774,9005.03,405.219C8986.09,477.174,8997.46,492.323,9061.85,492.323C9130.04,492.323,9141.4,515.045,9141.4,662.742L9141.4,833.161L8198.16,833.161L8137.55,946.774L8076.9400000000005,1060.39L9217.17,1060.39L9217.17,1439.1L8910.33,1439.1L9084.58,1666.32L9258.84,1893.55L9107.31,1893.55C9023.97,1893.55,8948.21,1904.91,8940.630000000001,1920.06C8929.27,1938.99,8910.33,2063.97,8895.18,2207.88L8868.66,2461.61L9217.17,2461.61L9217.17,2859.26C9217.17,3124.36,9198.23,3302.35,9164.130000000001,3389.45Q9107.31,3522,8857.3,3522L8603.49,3522L8686.83,3389.45C8736.08,3309.92,8777.74,3166.01,8789.11,3029.68L8811.84,2802.45L7277.65,2802.45L7300.38,2582.8C7332.21,2316.83,7340.84,2217.34,7393.45,2180.29C7428.48,2155.62,7483.02,2158.65,7576.91,2158.65L7789.04,2158.65L7762.530000000001,2310.13L7739.8,2461.61L8080.73,2461.61C8326.96,2461.61,8421.66,2450.25,8421.66,2412.38C8421.66,2389.66,8433.03,2302.55,8444.39,2223.03L8470.91,2082.9L7285.22,2082.9L7285.22,1984.44C7285.22,1897.34,7273.86,1889.76,7164,1901.12L7039,1912.48L7016.27,2632.03C7001.11,3025.89,6978.39,3389.45,6963.23,3434.9C6936.72,3514.43,6910.2,3522,6694.276,3522L6455.625,3522L6535.175,3340.22C6595.785,3207.67,6622.302,3059.97,6633.667,2753.22L6652.607,2348L6277.583,2348L6235.914,2832.75C6213.1849999999995,3097.85,6175.304,3359.15,6152.575,3415.96C6114.693,3514.43,6095.753,3522,5906.347,3522L5698,3522L5762.3979,3359.15C5815.432,3222.82,5826.796,2995.59,5838.161,1636.03L5849.525,75.7419L7020.0599999999995,75.7419L7020.0599999999995,965.71C7020.0599999999995,1454.25,7035.21,1855.68,7050.36,1855.68C7080.67,1855.68,7360.99,1495.9,7360.99,1458.03C7360.99,1446.67,7311.74,1439.1,7247.34,1439.1C7137.49,1439.1,7133.7,1435.31,7133.7,1249.74L7133.7,1060.39L7372.35,1060.39C7595.85,1060.39,7618.58,1052.81,7656.46,965.71C7682.98,912.69,7701.92,859.671,7701.92,852.097C7701.92,840.736,7584.49,833.161,7436.75,833.161L7171.58,833.161L7171.58,662.742C7171.58,507.471,7179.16,492.323,7266.28,492.323C7376.14,492.323,7376.14,484.748,7307.95,253.735L7254.92,75.7419L7660.25,75.7419L7705.71,284.032C7770.1,568.064,7864.8099999999995,571.852,7948.15,295.394ZM10262.689999999999,367.348C10232.39,234.8,10194.5,98.4646,10179.35,64.3806C10160.41,7.57422,10190.720000000001,0,10421.79,0L10690.75,0L10747.57,196.929C10777.880000000001,306.755,10815.76,443.09,10827.119999999999,499.897L10853.64,605.936L10323.3,605.936L10262.689999999999,367.348ZM11073.35,568.065L11073.35,113.613L13304.55,113.613L13315.92,1598.15C13331.07,3124.35,13327.279999999999,3101.63,13478.810000000001,3453.83C13501.54,3514.43,13478.810000000001,3522,13221.21,3522L12940.89,3522L12895.439999999999,3306.14C12868.92,3173.59,12853.77,2624.46,12853.77,1829.17L12853.77,568.065L12096.14,568.065L12096.14,1514.84L12664.36,1514.84L12664.36,1969.29L12096.14,1969.29L12096.14,3522L11641.57,3522L11633.99,2757.01L11622.630000000001,1988.23L11312,1976.86L10997.59,1965.5L10997.59,1514.84L11641.57,1514.84L11641.57,568.065L11073.35,568.065ZM14444.78,151.484L14444.78,605.936L17551,605.936L17551,151.484L14444.78,151.484ZM6641.243,1022.52L6641.243,454.452L6262.4310000000005,454.452L6262.4310000000005,1022.52L6641.243,1022.52ZM9974.79,795.291L9974.79,1211.87L10277.84,1211.87L10277.84,3522L11111.23,3522L11111.23,3105.42L10770.3,3105.42L10770.3,795.291L9974.79,795.291ZM14255.37,1666.32L14255.37,1439.1L14255.37,1211.87L17740.4,1211.87L17740.4,1666.32L16732.8,1673.9L15725.2,1685.26L15600.16,2026.1C15531.97,2211.66,15406.96,2525.99,15319.84,2722.92C15236.5,2919.85,15164.52,3086.48,15164.52,3094.06C15164.52,3101.63,15573.64,3105.42,16069.9,3105.42L16979,3105.42L16888.1,2851.68C16842.7,2707.77,16748,2457.83,16683.6,2291.19C16619.2,2124.56,16566.1,1984.44,16566.1,1980.65C16566.1,1973.08,16691.1,1969.29,16846.5,1969.29C17119.2,1969.29,17126.8,1973.08,17164.7,2071.54C17187.4,2132.14,17316.2,2472.97,17452.6,2836.54C17592.7,3200.1,17698.8,3499.28,17691.2,3506.85C17683.6,3518.21,16933.6,3518.21,16028.2,3514.43L14380.38,3503.06L14581.15,3063.76C14747.83,2692.63,15126.64,1734.49,15126.64,1681.47C15126.64,1673.9,14929.66,1666.32,14691.01,1666.32L14255.37,1666.32ZM6641.243,1969.29L6641.243,1401.23L6262.4310000000005,1401.23L6262.4310000000005,1969.29L6641.243,1969.29ZM8648.95,1742.06L8542.880000000001,1590.58L8440.6,1442.88L8156.49,1439.1C7876.17,1439.1,7872.38,1442.88,7796.62,1564.07C7754.95,1628.45,7717.07,1696.62,7709.49,1711.77C7701.92,1730.7,7910.26,1742.06,8171.639999999999,1742.06L8648.95,1742.06ZM7133.7,2953.94L7133.7,3256.9L8573.19,3256.9L8573.19,2953.94L7133.7,2953.94Z" fill-rule="evenodd" fill="#FFFFFF" fill-opacity="1"/></g><g style="mix-blend-mode:hard-light"><path d="M0.776855,2775.94C-0.739746,2795.14,0.0688476,2842.05,2.29297,2860.45C21.5005,3019.96,117.234,3148.34,263.21,3210.21C275.846,3215.57,1149.07,3538.75,1150.89,3538.75C1152.51,3538.75,1505.62,3207.38,1505.62,3205.86C1505.62,3205.26,1266.14,3116.2,973.376,3007.93C680.616,2899.57,440.322,2810.61,439.412,2810.21C439.409,2810.2,439.408,2810.2,439.407,2810.2C439.068,2809.28,650.026,2730.8,1111.16,2560.21C1481.56,2423.24,1792.11,2308.2,1801.31,2304.77C1946.78,2248.86,2072.54,2157.38,2169.89,2036.58C2226.4,1966.42,2272.1,1886.56,2304.95,1800.54C2308.59,1791.04,2423.43,1481.1,2560,1111.62C2696.68,742.147,2808.79,439.49,2809.19,439.086C2809.68,438.905,2881.12,630.784,2968.01,865.677C3055.05,1100.71,3126.72,1293.08,3127.33,1293.08C3128.04,1293.08,3205.88,1220.39,3300.4,1131.54L3472.25,969.899L3470.84,966.259C3453.35,917.03,3211.54,266.326,3206.89,255.813C3181.51,198.496,3144.21,147.042,3099.63,107.82C3031.9,48.2796,2950.82,12.7976,2857.72,2.08228C2844.68,0.666993,2795.24,-0.545899,2782.91,0.26294C2674.24,7.84449,2579.31,49.1895,2505.52,120.962C2465.18,160.285,2430.91,210.728,2408.97,263.092C2406.14,269.865,2289.48,584.551,2149.67,962.317C2009.86,1340.08,1893.91,1653.05,1891.99,1657.7C1871.27,1707.54,1839.73,1755.15,1800.91,1794.78C1759.56,1837.13,1705.18,1873.42,1651.7,1894.35C1645.33,1896.88,1333.67,2012.22,959.223,2150.81C584.781,2289.3,272.712,2405.04,265.737,2407.88C186.886,2440.22,118.245,2496.13,72.1469,2565.77C30.6997,2628.25,6.94336,2698.2,0.776855,2775.94ZM2250.26,4300.95C2117.73,4425.29,2078.4,4462.69,2078.71,4464.21C2079.01,4466.33,2399.37,5332.15,2405.54,5347.72C2411.3,5362.07,2420.4,5381.48,2427.67,5395.02C2495.61,5519.87,2614.39,5599.32,2758.65,5616.71C2777.05,5618.93,2823.95,5619.74,2843.16,5618.23C2975.49,5607.71,3089.82,5543.93,3164.02,5439.2C3181.11,5415.04,3199.91,5380.87,3211.23,5353.27C3214.06,5346.3,3330.42,5032.42,3469.82,4655.77C3609.13,4279.11,3725.48,3965.44,3728.32,3958.77C3770.87,3858.28,3852.15,3775.49,3951.52,3731.42C3959.61,3727.88,4275.12,3610.72,4652.59,3471.02C5030.17,3331.41,5345.57,3214.35,5353.66,3211.02C5361.75,3207.68,5376.51,3200.81,5386.52,3195.65C5479.72,3147.84,5550.08,3070.81,5587.99,2974.88C5603.26,2936.26,5611.95,2901.18,5617.1,2856.91C5619.63,2835.58,5619.63,2783.21,5617.1,2761.88C5608.61,2689.1,5586.47,2626.43,5548.97,2568.91C5501.36,2495.62,5431.2,2438.71,5347.49,2405.45C5333.24,2399.79,4575.46,2119.47,4574.55,2119.47C4574.04,2119.57,4494.18,2194.28,4396.83,2285.66C4299.58,2377.04,4219.82,2452.25,4219.72,2452.66C4219.53,2453.17,4435.76,2533.63,4700.11,2631.38C4964.42,2729.18,5180.27,2809.41,5180.09,2809.9C5179.68,2810.31,4872.67,2924.03,4497.92,3062.62C4123.18,3201.21,3808.99,3317.77,3799.79,3321.51C3694.55,3364.17,3599.83,3426.44,3518.45,3506.4C3472.86,3551.28,3437.98,3593.33,3402.9,3645.9C3369.04,3696.75,3342.55,3747.29,3319.2,3805.62C3314.65,3817.04,3198.19,4131.22,3060.3,4503.93C2835.22,5112.44,2810.3,5179.34,2808.65,5178.77C2808.62,5178.76,2808.6,5178.73,2808.59,5178.7C2807.58,5176.27,2427.57,4149.62,2424.84,4141.94C2424.24,4140.42,2423.43,4139.21,2423.02,4139.41C2422.52,4139.61,2344.78,4212.3,2250.26,4300.95Z" fill="#FFFFFF" fill-opacity="1" style="mix-blend-mode:hard-light"/></g><g><path d="M529.64779,4900.14C527.120882,4910.15,526.9187301,4912.28,527.0198063,4932.6C527.0198063,4953.62,527.120882,4954.74,530.15366,4965.96C534.70257,4983.14,542.9923,5001.14,551.9895,5013.78L555.5277,5018.73L793.906,4759.62C1009.134,4525.79,1032.385,4500.21,1032.183,4497.48C1032.0819999999999,4495.76,1031.981,4488.18,1031.88,4480.7C1031.172,4407.5,1096.983,4332.889999999999,1173.309,4320.360000000001C1186.9569999999999,4318.13,1208.692,4318.84,1220.115,4321.88C1254.79,4330.969999999999,1278.446,4355.139999999999,1287.3429999999998,4390.52C1288.6570000000002,4395.67,1289.0610000000001,4401.639999999999,1289.0610000000001,4415.49C1289.0610000000001,4431.87,1288.859,4434.8,1286.3310000000001,4444.5C1277.031,4481.91,1255.7,4514.5599999999995,1224.3609999999999,4539.74C1190.6970000000001,4566.73,1147.935,4580.68,1113.866,4575.73L1107.4969999999998,4574.82L850.0129999999999,4808.05C708.482,4936.34,590.8096,5042.89,588.6865,5044.91L584.7441,5048.55L593.337,5054.21C608.0966,5064.02,626.3943,5071.81,643.681,5075.65C655.509,5078.28,681.591,5078.78,694.329,5076.76C707.875,5074.54,726.578,5068.27,738.204,5062.1C743.157,5059.47,974.358,4911.77,1251.758,4733.84L1756.31,4410.4400000000005L3418.59,2761.06C4332.88,1853.92,5083.7,1109.1480000000001,5087.04,1106.115L5093,1100.5549999999998L5091.89,1089.434C5085.22,1026.5529999999999,5066.61,955.7860000000001,5040.63,895.1279999999999C5006.97,816.273,4961.58,750.965,4903.85,697.991C4823.69,624.4944,4710.26,570.8124,4587.84,548.67241C4575.5,546.34703,4544.16,542,4540.52,542C4539.82,542,4443.48,637.0303,4326.51,753.189C4209.4400000000005,869.2470000000001,4113.610000000001,964.175,4113.41,964.0740000000001C4113.3,963.973,4113.91,960.637,4114.92,956.694C4115.83,952.6510000000001,4116.34,949.213,4116.030000000001,948.9100000000001C4115.02,947.899,4082.27,941.631,4064.17,938.9010000000001C4024.34,933.038,3988.86,930.713,3951.96,931.521C3885.24,933.139,3832.57,944.563,3786.67,967.512C3762.11,979.845,3744.42,992.381,3721.26,1013.915C3681.33,1051.219,3543.54,1187.496,3316.49,1414.255L3176.37,1554.17L3172.53,1553.06C3170.51,1552.55,3163.33,1551.54,3156.66,1550.8400000000001C3142.3,1549.42,3124.41,1550.73,3106.62,1554.47C3006.94,1575.5,2901.09,1668.41,2871.98,1760.21C2866.82,1776.28,2865.31,1786.39,2865.31,1803.17C2865.31,1820.96,2867.33,1830.57,2873.9,1843.1C2885.32,1865.04,2904.33,1877.98,2932.74,1883.04C2947.09,1885.56,2974.69,1884.76,2991.57,1881.12C3039.09,1871.11,3087.92,1845.83,3133.1,1807.82C3146.04,1797,3168.18,1774.56,3177.48,1762.73C3182.84,1756.06,3258.76,1679.43,3401.51,1536.783C3702.16,1236.225,3821.35,1118.751,3836.71,1107.934C3857.84,1092.972,3887.87,1083.266,3925.37,1079.324C3940.43,1077.807,3991.08,1077.3020000000001,3995.53,1078.616L3995.54,1078.62C3996.73,1079.837,3784.84,1290.414,2600.14,2465.85L1202.626,3852.39L874.983,4354.63C694.835,4630.82,545.5197000000001,4860.62,543.0934,4865.16C537.1289,4876.49,532.8832,4887.51,529.64779,4900.14Z" fill="#006FFC" fill-opacity="1"/></g><g><path d="M21505.836,1374.72C21505.836,2863.05,21486.896,3029.68,21293.7031,3359.15L21199,3522L21842.98,3522L21884.648,3366.73C21983.141,3010.74,21998.293,2719.14,21998.293,1389.86L21998.293,0L21505.836,0L21505.836,1374.72Z" fill-rule="evenodd" fill="#006FFC" fill-opacity="1"/></g></g></svg>